<svg width="2500" height="2500" viewBox="0 0 2500 2500" fill="none" xmlns="http://www.w3.org/2000/svg">
<path fill-rule="evenodd" clip-rule="evenodd" d="M226.141 1280.88C184.041 1284.12 155.326 1308.58 114.523 1344.82L110.295 1348.58L359.133 1348.6L331.702 1235.01C331.65 1235.01 331.754 1235.01 331.702 1235.01C302.714 1237.06 282.092 1256.04 277.268 1260.86C271.743 1266.38 262.067 1278.12 226.141 1280.88V1280.88Z" fill="#CC262D"/>
<path fill-rule="evenodd" clip-rule="evenodd" d="M274.505 1249.11C279.33 1244.28 299.939 1225.31 328.952 1223.26C328.991 1223.26 328.913 1223.26 328.952 1223.26L311.119 1146.86L172.602 1285.39C188.36 1276.3 204.52 1270.6 223.378 1269.14C259.304 1266.38 268.98 1254.62 274.505 1249.11Z" fill="#CC262D"/>
<path fill-rule="evenodd" clip-rule="evenodd" d="M525.12 1180.25H588.205L640.369 1348.51H581.305L572.55 1315.19H467.002L441.076 1348.51H386.784L525.12 1180.25ZM546.118 1212.88L491.139 1283.95H564.276L546.118 1212.88V1212.88ZM693.493 1180.25H794.281C818.146 1180.25 840.57 1183.05 856.134 1194.23C875.316 1207.98 884.084 1232.22 876.445 1262.75C869.052 1292.35 851.634 1314.72 831.167 1328.23C812.504 1340.58 785.384 1348.51 748.446 1348.51H651.432L693.493 1180.25ZM712.351 1315.89H736.229C778.938 1315.89 810.377 1309.83 821.907 1263.7C831.816 1224.07 809.741 1212.89 770.78 1212.89H738.109L712.351 1315.89ZM978.219 1180.25H1041.3L1093.47 1348.51H1034.4L1025.65 1315.19H920.088L894.162 1348.51H839.87L978.219 1180.25ZM999.217 1212.88L944.251 1283.95H1017.39L999.217 1212.88ZM1142.26 1180.25H1223.68L1245.98 1305.17L1333.76 1180.25H1418.92L1376.84 1348.52H1327.09L1361.35 1211.48H1360.84L1266.5 1348.52H1212.23L1186.18 1211.48H1185.67L1151.4 1348.52H1100.19L1142.26 1180.25ZM1460.03 1293.98C1455.17 1315.42 1464.52 1320.31 1489.14 1320.31C1520.29 1320.31 1527.64 1310.06 1529.51 1302.61C1532.3 1291.43 1520.67 1287.7 1500.73 1283.95L1476.01 1279.3C1447.46 1273.94 1418.61 1263.7 1426.64 1231.53C1436.95 1190.27 1481.78 1175.84 1523.25 1175.84C1589.59 1175.84 1603.72 1194.71 1597.08 1228.26H1545.81C1548.63 1211.01 1534.19 1208.46 1518.36 1208.46C1495.23 1208.46 1483.38 1215.68 1481.04 1224.99C1478.18 1236.41 1494.01 1239.44 1512.43 1243.16L1535.63 1247.82C1567.25 1254.11 1591.9 1264.14 1583.56 1297.46C1571.83 1344.3 1518.66 1352.93 1477.94 1352.93C1404.81 1352.93 1399.77 1323.8 1407.25 1293.95H1460.03V1293.98ZM1715.52 1258.53H1798.71L1777.16 1348.67H1760.54L1759.69 1326.85C1742.94 1342.8 1716.7 1353.12 1690.8 1353.12C1658.33 1353.12 1645.01 1342.58 1637.25 1334.11C1614.02 1309.7 1620.16 1280.83 1624.41 1262.98C1634.24 1221.91 1673.31 1175.67 1735.08 1175.67C1770.48 1175.67 1805.56 1193.5 1802.06 1231.31H1777.23C1776.07 1201.97 1749.8 1195.86 1728.92 1195.86C1694.88 1195.86 1661.09 1220.04 1650.55 1264.18C1642.34 1298.46 1646.59 1333.65 1697.05 1333.65C1706.55 1333.65 1722.09 1332.72 1738.44 1322.85C1757.87 1311.13 1765.7 1296.11 1770.04 1278.03H1710.88L1715.52 1258.53V1258.53ZM1972.92 1264.41C1963.43 1304.08 1931.7 1332.95 1890.5 1332.95C1849.31 1332.95 1831.4 1304.07 1840.88 1264.41C1850.37 1224.73 1882.09 1195.86 1923.3 1195.86C1964.49 1195.86 1982.4 1224.73 1972.92 1264.41ZM1999.32 1264.41C2008.03 1228.02 1998.89 1175.67 1928.11 1175.67C1857.34 1175.67 1823.16 1228.02 1814.47 1264.41C1805.75 1300.79 1814.9 1353.14 1885.67 1353.14C1956.45 1353.14 1990.63 1300.79 1999.32 1264.41ZM2030.46 1328.51H2126.59L2121.78 1348.67H2000.03L2040.33 1180.13H2065.94L2030.46 1328.51ZM2168.76 1348.67H2143.15L2183.46 1180.13H2314.7L2309.89 1200.33H2204.22L2191.89 1251.96H2284.86L2280.02 1272.15L2187.05 1272.17L2168.76 1348.67ZM2376.05 1198.64L2382.99 1180.48H2389.7V1205.18H2385.32V1185.1H2385.22L2377.46 1205.18H2374.48L2366.75 1185.1H2366.62V1205.18H2362.26V1180.48H2368.95L2376.05 1198.64V1198.64ZM2357.94 1184.07H2350.34V1205.18H2345.96V1184.07H2338.36V1180.48H2357.94V1184.07V1184.07Z" fill="#CA2A2D"/>
</svg>
