<svg width="2500" height="2500" viewBox="0 0 2500 2500" fill="none" xmlns="http://www.w3.org/2000/svg">
<path d="M129.062 1119.41H409.352V1380.59H110.295V1119.41H129.062Z" fill="#CA2A2D"/>
<path fill-rule="evenodd" clip-rule="evenodd" d="M129.062 1138.17H390.611V1361.84H129.062V1138.17Z" fill="#CA2A2D"/>
<path fill-rule="evenodd" clip-rule="evenodd" d="M215.233 1172.66H156.558V1199.21H173.782V1279.57C173.782 1279.57 173.782 1329.83 226.958 1329.83C226.958 1329.83 249.383 1330.23 262.768 1311.77C262.768 1311.77 273.96 1329.83 295.257 1329.83C295.257 1329.83 315.386 1331.85 329.017 1319.34C329.017 1319.34 357.136 1300.47 356.759 1242.24C356.759 1242.24 355.955 1198.39 345.554 1172.66H297.202V1199.21H311.754C311.754 1199.21 319.355 1220.86 319.355 1248.68C319.355 1248.68 320.25 1265.23 311.754 1282.81C311.754 1282.81 306.579 1295.29 295.27 1295.29C295.27 1295.29 285.257 1294.88 285.607 1282.81V1172.66H226.971V1199.21H244.182V1280.83C244.182 1280.83 244.182 1295.29 229.734 1295.29C229.734 1295.29 215.259 1295.25 215.259 1280.83V1172.66H215.233V1172.66ZM347.253 1318.99C347.253 1316.69 348.166 1314.48 349.792 1312.86C351.418 1311.23 353.623 1310.32 355.923 1310.32C358.222 1310.32 360.428 1311.23 362.054 1312.86C363.68 1314.48 364.593 1316.69 364.593 1318.99C364.593 1324.07 360.832 1327.87 355.929 1327.87C354.77 1327.88 353.621 1327.65 352.552 1327.21C351.482 1326.76 350.513 1326.1 349.703 1325.27C348.893 1324.44 348.259 1323.46 347.838 1322.38C347.417 1321.3 347.218 1320.14 347.253 1318.99V1318.99ZM355.929 1329.66C357.36 1329.71 358.786 1329.47 360.122 1328.96C361.458 1328.45 362.677 1327.67 363.707 1326.67C364.737 1325.68 365.556 1324.49 366.115 1323.17C366.674 1321.85 366.962 1320.44 366.962 1319.01C366.962 1317.57 366.674 1316.16 366.115 1314.84C365.556 1313.52 364.737 1312.33 363.707 1311.34C362.677 1310.34 361.458 1309.57 360.122 1309.05C358.786 1308.54 357.36 1308.3 355.929 1308.35C350.054 1308.35 345.087 1312.79 345.087 1319C345.09 1320.41 345.374 1321.81 345.922 1323.12C346.471 1324.42 347.272 1325.6 348.281 1326.59C349.289 1327.59 350.485 1328.37 351.798 1328.89C353.111 1329.42 354.515 1329.68 355.929 1329.66V1329.66ZM353.686 1319.82H355.864L359.081 1325.09H361.195L357.706 1319.67C359.496 1319.48 360.832 1318.53 360.832 1316.31C360.832 1313.94 359.47 1312.77 356.526 1312.77H351.857V1325.09H353.699V1319.82H353.686ZM353.686 1318.23V1314.41H356.28C357.602 1314.41 358.977 1314.72 358.977 1316.25C358.977 1318.14 357.486 1318.23 355.929 1318.23H353.686Z" fill="white"/>
<path fill-rule="evenodd" clip-rule="evenodd" d="M565.404 1297.87C582.485 1297.87 591.33 1298.34 604.78 1297.87C632.561 1297.04 638.19 1274.08 642.496 1260.48C649.15 1239.42 655.064 1220.22 648.047 1211.82C639.734 1201.84 640.81 1204.62 592.122 1204.62C586.272 1224.76 570.242 1277.31 565.404 1297.87ZM2359.14 1360.11C2351.11 1360.11 2344.62 1353.36 2344.62 1345.03C2344.62 1336.75 2351.11 1330.06 2359.14 1330.06C2367.11 1330.06 2373.62 1336.77 2373.62 1345.03C2373.62 1353.37 2367.11 1360.11 2359.14 1360.11ZM2363.48 1356.01H2367.97L2361.99 1346.62C2365.08 1346.07 2367.62 1344.38 2367.62 1340.41C2367.62 1336 2364.83 1334.13 2359.36 1334.13H2350.82V1356.03H2354.65V1346.77H2357.94L2363.48 1356.01V1356.01ZM2354.65 1343.58V1337.31H2358.88C2361.08 1337.31 2363.77 1337.71 2363.77 1340.28C2363.77 1343.33 2361.31 1343.59 2358.6 1343.59H2354.65V1343.58V1343.58ZM1705.25 1203.88C1701.37 1218.55 1698.29 1233.09 1694.36 1248.47C1714.75 1248.34 1740.28 1248.47 1743.47 1248.07C1754.24 1246.71 1756.85 1240.84 1760.59 1234.75C1763.43 1228.54 1767.84 1214.14 1759.37 1207.25C1755.68 1204.31 1756.05 1204.31 1751.19 1203.84L1705.25 1203.88V1203.88ZM846.355 1235.75C846.355 1235.75 834.565 1283.15 832.918 1287L904.628 1247.28C905.121 1246.98 909.492 1237.95 909.492 1233.28C907.819 1219.47 898.312 1215.88 883.124 1215.88C881.438 1215.86 854.124 1213.05 846.355 1235.75ZM677.904 1137.69C683.61 1140.51 784.71 1120.07 726.968 1289.48C703.402 1358.53 641.147 1362.32 632.574 1362.32C625.934 1362.32 446.731 1361.84 446.731 1361.84C446.225 1361.84 478.26 1255.1 478.26 1255.1L585.001 1205.15C544.743 1204.61 525.444 1205.73 493.162 1205.15C494.252 1205.73 513.175 1137.5 513.175 1137.5L677.904 1137.69ZM2339.98 1345.03C2339.98 1350.11 2342 1354.98 2345.59 1358.58C2349.18 1362.17 2354.05 1364.19 2359.14 1364.19C2364.22 1364.19 2369.09 1362.17 2372.68 1358.58C2376.27 1354.98 2378.29 1350.11 2378.29 1345.03C2378.29 1334.45 2369.73 1325.9 2359.14 1325.9C2348.54 1325.9 2339.98 1334.45 2339.98 1345.03ZM2326.1 1363.54L2389.71 1138.91L2290.2 1138.69L2228.14 1363.52C2228.14 1363.54 2325.87 1363.78 2326.1 1363.54ZM2175.25 1138.69L2141.2 1253.53L2119.7 1137.79C2119.7 1137.79 2012.93 1137.23 2013.49 1137.79L1951.03 1362.47C1951.03 1363.2 2047.51 1362.18 2046.71 1362.47L2076.87 1258.44L2101.85 1363.52H2207.69L2270.2 1138.9L2175.25 1138.69V1138.69ZM1993.17 1137.5H1895.6L1831.6 1363.12L1929.97 1362.99L1993.17 1137.5ZM1846.75 1151.07C1864.74 1170.59 1861.67 1221.18 1844.31 1243.32C1834.24 1257.91 1811.06 1266.77 1798.28 1268.72L1823.03 1362.8H1722.86C1713.29 1326.33 1702.77 1290.09 1693.18 1252.83L1663.31 1361.62C1662.83 1362.34 1662.09 1363.55 1661.58 1363.55H1395.38L1480.14 1320.61L1480.64 1194.58C1450.24 1249.4 1385.07 1362.99 1383.32 1362.99L1199.05 1363.12L1233.02 1240.12L1157.67 1361.27L1102.44 1361.1L1091.42 1237.61L1059.34 1361.1H968.725L1028.13 1138.93C1028.92 1138.19 1155.36 1138.43 1155.36 1138.93L1155.84 1254.79L1224.58 1138.93C1224.58 1138.93 1352.97 1138.2 1352.97 1138.71L1302.1 1320.43L1412.04 1140.64C1412.5 1139.47 1413.72 1138.2 1415.01 1138.2H1575.89L1574.17 1338.6L1629.34 1138.2L1807.06 1138.25C1811.47 1138.25 1835.46 1138.25 1846.78 1150.98L1846.75 1151.07V1151.07ZM799.145 1366.64C792.258 1366.13 702.339 1360.61 759.25 1222.28C787.498 1163.62 843.074 1164.58 860.764 1163.31C875.9 1162.12 944.082 1160.24 972.304 1190.7C980.592 1199.05 990.021 1216.12 981.772 1249.68C979.515 1262.61 973.199 1281.28 969.023 1287.91H832.374C831.232 1296.92 827.38 1306.87 839.727 1311.61C846.718 1314.62 890.452 1319.63 960.683 1303.57C962.512 1303.16 932.513 1354.78 932.513 1354.78C932.513 1355.25 851.802 1372.51 799.21 1366.62C798.522 1367.08 799.145 1366.64 799.145 1366.64V1366.64Z" fill="#CA2A2D"/>
</svg>
