<svg width="2500" height="2500" viewBox="0 0 2500 2500" fill="none" xmlns="http://www.w3.org/2000/svg">
<path fill-rule="evenodd" clip-rule="evenodd" d="M1016.84 1641.89V1681.92H1062.08V1641.89H1074.26V1735.85H1062.08V1692.35H1016.84V1735.85H1004.65V1641.89H1016.84V1641.89ZM1136.9 1713.23C1133.41 1706.29 1129.94 1699.32 1129.94 1688.88C1129.94 1669.73 1140.38 1650.61 1161.26 1650.61C1168.23 1650.61 1173.44 1652.34 1178.65 1657.55L1136.9 1713.23ZM1128.2 1741.06L1136.9 1730.62C1143.87 1734.12 1152.57 1737.59 1161.26 1737.59C1183.88 1737.59 1204.76 1720.18 1204.76 1688.87C1204.75 1676.23 1200.46 1663.96 1192.58 1654.06L1201.29 1641.88L1192.58 1636.67L1185.63 1647.11C1178.67 1643.63 1169.96 1640.17 1161.27 1640.17C1136.92 1640.17 1117.77 1659.3 1117.77 1688.88C1117.77 1702.79 1122.99 1714.98 1129.95 1723.69L1121.25 1735.86L1128.2 1741.06ZM1185.63 1664.51C1190.84 1671.48 1192.58 1680.17 1192.58 1688.88C1192.58 1709.75 1180.4 1727.16 1161.26 1727.16C1154.3 1727.16 1147.33 1725.41 1143.86 1720.19L1185.63 1664.51V1664.51ZM1263.92 1652.32C1265.67 1650.6 1269.13 1650.6 1276.1 1650.6C1288.27 1650.6 1296.96 1655.81 1296.96 1667.98C1296.96 1678.44 1288.27 1685.38 1276.1 1685.38H1263.92V1652.32ZM1251.74 1735.85H1263.92V1695.85H1274.36C1286.54 1695.85 1291.76 1701.06 1293.51 1713.23C1296.99 1725.41 1298.73 1732.38 1300.48 1735.85H1312.64C1310.92 1732.37 1309.17 1723.68 1305.71 1709.75C1302.2 1701.06 1298.74 1694.1 1291.78 1690.6C1300.49 1687.12 1309.18 1678.43 1309.18 1666.25C1309.18 1659.29 1305.71 1652.32 1302.22 1648.85C1295.25 1643.63 1288.31 1641.88 1274.38 1641.88C1265.69 1641.88 1256.99 1641.88 1251.76 1643.63V1735.85H1251.74V1735.85ZM1413.55 1692.35H1377.03V1725.41H1418.78V1735.85H1364.83V1641.89H1417.05V1652.32H1377.03V1681.92H1413.55V1692.35V1692.35ZM1488.38 1697.57L1497.07 1669.74C1498.83 1664.53 1500.58 1657.56 1502.31 1652.34C1504.04 1657.55 1505.79 1662.78 1507.53 1669.74L1516.22 1697.57H1488.38ZM1519.69 1706.29L1530.16 1735.85H1542.33L1511.02 1641.89H1495.36L1464.03 1735.85H1476.21L1486.65 1706.29H1519.69V1706.29ZM1601.49 1652.32C1603.22 1650.6 1608.46 1650.6 1613.67 1650.6C1627.58 1650.6 1636.29 1657.54 1636.29 1669.73C1636.29 1681.92 1627.58 1688.88 1611.92 1688.88H1601.48V1652.32H1601.49V1652.32ZM1589.3 1735.85H1601.48V1697.57C1604.96 1699.32 1608.45 1699.32 1611.92 1699.32C1624.1 1699.32 1634.54 1695.85 1639.75 1688.88C1644.97 1683.67 1648.44 1676.71 1648.44 1667.99C1648.44 1661.05 1644.97 1654.09 1639.75 1648.86C1634.54 1643.63 1625.82 1641.89 1613.66 1641.89C1603.19 1641.89 1596.25 1641.89 1589.29 1643.65V1735.85H1589.3ZM1709.38 1652.32C1711.1 1650.6 1714.59 1650.6 1719.82 1650.6C1733.72 1650.6 1742.44 1657.54 1742.44 1669.73C1742.44 1681.92 1733.72 1688.88 1719.82 1688.88H1709.38V1652.32V1652.32ZM1697.18 1735.85H1709.36V1697.57C1711.09 1699.32 1714.58 1699.32 1718.05 1699.32C1730.23 1699.32 1740.67 1695.85 1747.64 1688.88C1752.85 1683.67 1754.6 1676.71 1754.6 1667.99C1754.6 1661.05 1751.1 1654.09 1745.89 1648.86C1740.67 1643.63 1731.96 1641.89 1719.79 1641.89C1711.08 1641.89 1702.39 1641.89 1697.17 1643.65V1735.85H1697.18ZM1810.29 1697.57L1820.73 1669.74C1822.46 1664.53 1824.21 1657.56 1824.21 1652.34H1825.96C1825.96 1657.55 1827.69 1662.78 1829.44 1669.74L1839.88 1697.57H1810.29ZM1841.6 1706.29L1852.04 1735.85H1864.22L1832.91 1641.89H1818.98L1785.92 1735.85H1798.1L1808.54 1706.29H1841.6ZM1925.13 1652.32C1926.88 1650.6 1932.09 1650.6 1937.31 1650.6C1949.49 1650.6 1958.18 1655.81 1958.18 1667.98C1958.18 1678.44 1951.21 1685.38 1937.31 1685.38H1925.13V1652.32ZM1912.94 1735.85H1925.12V1695.85H1937.29C1947.73 1695.85 1952.95 1701.06 1956.42 1713.23C1958.18 1725.41 1959.93 1732.38 1961.66 1735.85H1973.83C1972.1 1732.37 1970.35 1723.68 1966.89 1709.75C1965.14 1701.06 1959.93 1694.1 1952.96 1690.6C1963.4 1687.12 1970.37 1678.43 1970.37 1666.25C1970.37 1659.29 1968.62 1652.32 1963.4 1648.85C1958.19 1643.63 1949.5 1641.88 1935.57 1641.88C1928.6 1641.88 1919.91 1641.88 1912.95 1643.63V1735.85H1912.94V1735.85ZM2041.7 1697.57L2050.42 1669.74C2052.14 1664.53 2053.89 1657.56 2055.63 1652.34C2057.35 1657.55 2057.35 1662.78 2060.84 1669.74L2069.53 1697.57H2041.7V1697.57ZM2071.28 1706.29L2081.73 1735.85H2095.65L2062.57 1641.89H2048.67L2015.61 1735.85H2029.51L2038.22 1706.29H2071.28V1706.29ZM2146.12 1652.32H2118.27V1641.89H2187.86V1652.32H2158.27V1735.85H2146.12V1652.32ZM2274.87 1692.35H2238.32V1725.41H2280.1V1735.85H2226.14V1641.89H2278.35V1652.32H2238.32V1681.92H2274.87V1692.35V1692.35ZM2340.99 1652.32C2342.72 1650.6 2346.2 1650.6 2353.17 1650.6C2365.33 1650.6 2374.04 1655.81 2374.04 1667.98C2374.04 1678.44 2365.32 1685.38 2353.17 1685.38H2340.99V1652.32ZM2328.81 1735.85H2340.99V1695.85H2351.43C2363.61 1695.85 2368.84 1701.06 2370.59 1713.23C2374.06 1725.41 2375.8 1732.38 2377.53 1735.85H2389.71C2387.95 1732.37 2386.23 1723.68 2382.74 1709.75C2381.02 1701.06 2375.8 1694.1 2368.84 1690.6C2379.28 1687.12 2386.24 1678.43 2386.24 1666.25C2386.24 1659.29 2384.49 1652.32 2379.28 1648.85C2374.06 1643.63 2365.35 1641.88 2351.44 1641.88C2344.48 1641.88 2334.04 1641.88 2328.83 1643.63V1735.85H2328.81ZM1002.93 1038.11C1044.69 827.575 908.96 719.692 681.029 771.883C440.907 825.824 192.082 1062.47 125.962 1297.38C117.065 1329.22 111.955 1359.41 110.295 1387.74V1427.45C120.113 1584.41 248.734 1669.39 440.894 1626.23C644.481 1579.24 855.019 1401.76 954.199 1203.4C968.115 1177.29 982.032 1133.79 968.115 1088.55C964.639 1079.85 959.425 1071.16 955.937 1064.2C931.579 1032.87 889.817 1018.96 851.543 1020.69C776.72 1022.43 698.422 1067.67 663.624 1145.98C639.267 1208.61 647.957 1232.98 634.04 1271.26C620.123 1311.28 581.85 1361.75 519.206 1377.4C428.729 1398.3 371.298 1361.75 355.644 1300.85C336.501 1229.52 381.739 1165.14 428.729 1137.29C486.146 1105.97 559.23 1107.71 609.683 1161.65C625.35 1039.85 738.447 971.993 842.853 970.255C929.841 968.504 980.294 998.088 1002.93 1038.11V1038.11ZM2041.7 1234.73C2041.7 1239.96 2039.98 1248.65 2038.22 1255.62C2034.72 1262.58 2033.01 1271.27 2029.51 1279.99C2029.51 1279.99 1973.83 1419.18 1951.21 1478.33C1946 1490.51 1944.27 1497.49 1939.04 1502.7C1930.33 1514.88 1916.43 1523.57 1902.5 1523.57H1839.85C1832.91 1523.57 1825.95 1518.36 1824.2 1516.61C1822.45 1513.13 1820.72 1509.67 1820.72 1504.44C1820.72 1499.21 1825.94 1485.28 1829.41 1478.32C1832.91 1471.38 1874.65 1365.24 1874.65 1365.24C1879.86 1349.56 1890.3 1326.94 1895.52 1313.03L1897.27 1302.59C1900.74 1293.88 1904.23 1283.44 1905.96 1274.76C1907.71 1260.83 1905.96 1250.39 1899.02 1243.42C1893.81 1236.46 1879.86 1234.72 1860.75 1234.72C1850.28 1234.72 1839.85 1236.46 1825.94 1239.95C1813.76 1243.42 1798.1 1250.39 1780.7 1259.1L1688.47 1497.48C1681.53 1511.38 1662.37 1523.57 1650.2 1523.57C1638.02 1525.32 1627.58 1525.32 1615.38 1525.32C1604.94 1525.32 1594.52 1523.57 1584.08 1523.57C1573.63 1523.57 1570.15 1518.36 1568.42 1516.61C1564.92 1513.13 1564.92 1509.67 1564.92 1502.7C1566.67 1497.49 1575.36 1471.39 1573.63 1478.33C1570.13 1487.05 1693.68 1177.32 1693.68 1177.32C1698.9 1161.65 1716.3 1149.48 1731.96 1149.48C1731.96 1149.48 1751.11 1149.48 1759.82 1147.75C1770.26 1147.75 1796.34 1149.48 1796.34 1149.48C1811.99 1149.48 1818.96 1158.19 1815.49 1170.37C1815.49 1177.33 1818.97 1184.28 1834.63 1177.33C1834.63 1177.33 1860.75 1161.66 1881.61 1152.97C1904.23 1144.28 1926.85 1139.06 1951.2 1139.06C1984.26 1139.06 2010.37 1147.76 2026.03 1163.41C2041.7 1179.07 2046.91 1203.41 2041.7 1234.73ZM2201.8 1147.73C2213.96 1147.73 2229.63 1149.47 2229.63 1149.47C2245.29 1149.47 2255.73 1161.65 2250.5 1177.3C2250.5 1177.3 2133.93 1473.11 2132.18 1478.32C2130.43 1483.53 2125.21 1497.48 2120 1502.69C2113.03 1514.87 2099.13 1523.56 2085.21 1523.56H2020.82C2012.13 1523.56 2005.16 1520.08 2003.41 1516.59C1999.94 1513.12 1999.94 1507.9 1999.94 1502.69C2003.41 1492.25 2006.88 1485.28 2008.63 1478.32C2012.13 1469.63 2128.7 1177.3 2128.7 1177.3C2135.64 1161.64 2153.05 1149.47 2166.98 1149.47C2166.99 1149.47 2191.36 1147.73 2201.8 1147.73V1147.73ZM2238.32 1008.53C2198.3 1008.53 2161.77 1031.15 2158.27 1058.99C2153.06 1086.83 2182.64 1109.46 2220.92 1109.46C2260.94 1109.46 2297.49 1086.84 2300.97 1058.99C2306.18 1031.15 2278.35 1008.53 2238.32 1008.53ZM1262.17 1502.69C1258.69 1509.65 1253.48 1513.13 1250 1516.59C1243.04 1520.1 1234.33 1521.83 1227.38 1523.56C1218.69 1525.31 1187.37 1523.56 1197.81 1523.56C1208.25 1525.31 1169.96 1523.56 1159.52 1523.56C1150.82 1521.83 1147.34 1520.08 1143.86 1516.59C1142.12 1511.38 1140.38 1506.15 1142.12 1502.69C1142.12 1499.21 1149.08 1478.32 1149.08 1478.32L1196.06 1363.49C1201.27 1349.56 1209.98 1326.94 1215.2 1314.77L1218.69 1300.84C1223.9 1288.66 1227.38 1278.22 1227.38 1273.01C1230.87 1259.1 1229.12 1248.64 1222.17 1243.42C1216.95 1236.46 1204.77 1232.98 1185.63 1232.98C1176.93 1232.98 1166.47 1236.47 1154.3 1239.95C1142.12 1245.16 1128.2 1250.39 1112.55 1259.1L1018.58 1497.48C1013.37 1511.38 995.961 1523.57 980.307 1523.57H914.187C907.222 1523.57 902.008 1521.85 898.519 1516.61C896.781 1513.13 895.031 1507.92 896.781 1504.44C896.781 1495.73 901.995 1485.28 903.733 1478.32C905.471 1473.11 1023.79 1177.3 1023.79 1177.3C1029.02 1161.64 1046.41 1149.47 1062.08 1149.47C1062.08 1149.47 1086.44 1147.73 1095.14 1147.73C1103.84 1147.73 1128.2 1149.47 1128.2 1149.47C1142.12 1149.47 1149.08 1158.17 1147.34 1170.35C1145.61 1175.57 1150.83 1184.27 1164.75 1175.57C1164.75 1175.57 1190.84 1161.65 1211.74 1152.95C1232.62 1142.51 1255.24 1139.03 1277.87 1139.03C1302.22 1139.03 1323.11 1144.26 1338.77 1154.7L1352.67 1168.61C1366.6 1187.76 1382.25 1187.76 1420.53 1170.35C1432.71 1165.14 1443.15 1159.91 1453.59 1154.7C1477.96 1144.26 1502.33 1139.03 1523.2 1139.03C1556.26 1139.03 1580.63 1146 1594.53 1163.39C1610.18 1179.06 1613.69 1201.67 1610.18 1232.98C1608.46 1239.95 1606.71 1246.91 1604.97 1253.85C1601.49 1262.57 1599.76 1271.26 1596.28 1279.97C1596.28 1279.97 1540.6 1424.39 1517.98 1478.32C1512.77 1488.76 1509.27 1497.48 1505.8 1502.69C1498.84 1514.87 1484.93 1521.85 1472.74 1523.56C1457.09 1525.31 1444.91 1523.56 1437.93 1523.56C1432.72 1523.56 1415.31 1525.31 1404.87 1523.56C1396.18 1521.83 1390.94 1520.08 1387.47 1516.59C1385.72 1513.12 1385.72 1509.65 1385.72 1502.69C1387.47 1497.48 1394.43 1478.32 1394.43 1478.32L1441.39 1363.49C1446.61 1349.56 1455.32 1325.21 1462.29 1311.28L1465.77 1299.1C1469.24 1288.66 1472.73 1278.24 1474.45 1271.27C1476.21 1257.37 1474.45 1248.65 1467.52 1243.44C1462.3 1236.47 1450.11 1233 1432.71 1233C1423.99 1233 1413.55 1236.49 1401.4 1239.96C1390.93 1243.44 1377.03 1250.4 1359.62 1259.12C1359.62 1259.12 1277.85 1467.91 1274.36 1478.33C1270.88 1487.04 1267.39 1497.48 1262.17 1502.69V1502.69Z" fill="#256194"/>
</svg>
