<svg width="2500" height="2500" viewBox="0 0 2500 2500" fill="none" xmlns="http://www.w3.org/2000/svg">
<path fill-rule="evenodd" clip-rule="evenodd" d="M473.163 929.751C494.368 972.071 484.382 1030.55 473.163 1075.36C435.758 1077.85 398.34 1077.85 354.697 1075.36C349.717 1041.76 378.393 994.47 338.498 969.581C322.286 964.6 304.828 969.581 291.106 979.542C274.894 995.728 266.178 1016.88 273.649 1040.53C322.286 1138.84 458.196 1199.82 444.474 1326.76C438.235 1385.27 409.559 1435.05 358.432 1469.88C312.299 1504.74 227.503 1498.53 171.395 1483.59C141.461 1469.88 109.05 1451.24 97.8178 1417.62C82.8637 1372.81 97.8178 1325.51 102.811 1280.73L111.54 1272.01H225.012C236.231 1311.83 196.336 1371.57 246.205 1395.2C261.172 1395.2 281.12 1393.95 293.583 1384C311.041 1365.34 314.776 1340.46 309.796 1315.56C278.616 1216.01 136.468 1162.49 143.951 1048C150.19 985.78 176.376 919.816 236.218 893.682C307.292 866.302 369.638 863.812 440.712 894.927L473.163 929.751V929.751ZM2322.33 1060.42L2142.77 1555.74C2105.38 1626.69 2023.08 1600.55 1958.23 1605.54C1955.75 1576.89 1961.98 1545.79 1969.45 1517.16C1990.65 1513.44 2021.83 1518.41 2033.05 1492.29L2006.85 1044.25L2014.32 1038.04C2054.22 1036.79 2095.38 1036.79 2129.05 1038.04C2139.04 1126.39 2117.83 1220.97 2129.05 1305.6L2201.37 1038.04C2240.02 1036.79 2287.4 1030.56 2326.05 1036.79L2322.33 1060.42V1060.42ZM1082.9 1054.2C1100.35 1075.35 1105.35 1100.24 1104.09 1128.86L1051.72 1487.28C1013.06 1492.28 973.16 1489.76 929.517 1489.76C938.246 1374.02 961.941 1265.76 969.425 1150.02C961.941 1141.31 949.477 1137.58 941.994 1142.55C928.272 1146.28 923.291 1161.21 918.311 1172.41L873.423 1487.27L862.191 1492.26L752.467 1489.76C763.686 1340.43 792.362 1191.08 814.812 1042.99C854.72 1040.5 898.351 1036.76 933.265 1038.01C941.994 1044.22 935.755 1055.43 938.259 1064.14C954.471 1064.14 966.935 1044.23 985.637 1040.5C1019.31 1028.07 1054.22 1033.05 1082.9 1054.2V1054.2ZM1571.7 1076.59C1600.38 1057.93 1634.05 1035.52 1673.94 1038.02L1657.73 1161.23C1629.05 1167.45 1590.4 1155.01 1565.48 1181.14L1549.26 1206.03L1508.1 1487.29C1463.21 1492.29 1433.29 1489.77 1387.17 1489.77C1400.88 1341.68 1423.31 1192.35 1447.02 1044.23C1461.96 1036.76 1484.42 1044.23 1501.87 1038.02L1569.2 1040.51L1571.7 1076.59V1076.59ZM762.453 1283.2C768.679 1215.99 796.123 1141.33 768.679 1076.61C717.552 1008.17 637.749 1023.09 566.675 1040.53C454.46 1094.04 483.137 1233.42 455.706 1336.73C455.706 1387.75 438.248 1443.76 486.872 1476.1C539.244 1512.2 617.802 1505.97 673.909 1481.1C733.764 1449.97 754.957 1386.51 756.202 1321.79C712.559 1316.79 688.876 1323.03 637.749 1324.26C624.027 1356.64 640.239 1415.13 594.106 1418.85C582.887 1418.85 574.158 1410.14 570.423 1398.94C577.907 1362.85 575.403 1320.54 591.616 1288.2C647.736 1289.43 718.797 1288.18 762.453 1283.2V1283.2ZM627.775 1111.44C636.504 1111.44 653.961 1107.71 657.697 1122.65C658.942 1145.06 656.452 1172.43 650.213 1194.83C635.246 1197.32 609.073 1202.3 600.331 1189.85C610.318 1163.73 599.099 1127.63 627.775 1111.44V1111.44Z" fill="#2360A5"/>
<path fill-rule="evenodd" clip-rule="evenodd" d="M1384.65 1288.18L1395.87 1280.71C1403.37 1213.5 1427.05 1148.78 1405.86 1079.1C1363.47 1014.38 1281.18 1021.85 1228.79 1031.81C1081.65 1057.94 1119.07 1230.93 1087.89 1336.73C1087.89 1384 1071.68 1441.25 1116.57 1476.1C1173.93 1509.72 1235.03 1509.72 1298.62 1486.06C1367.19 1458.68 1387.15 1385.27 1389.65 1321.79H1276.19C1257.48 1349.17 1268.69 1395.2 1240.01 1417.62C1230.04 1417.62 1216.33 1423.85 1207.59 1407.66C1206.34 1369.08 1210.08 1326.76 1221.31 1290.67L1384.65 1288.18V1288.18ZM1262.45 1111.44C1273.67 1110.2 1289.88 1110.2 1292.4 1123.89C1294.88 1153.75 1287.4 1169.94 1282.41 1194.83L1237.52 1197.32C1236.28 1166.2 1235.03 1127.63 1262.45 1111.44V1111.44ZM1873.44 1036.78C1872.2 1038.02 1870.97 1041.76 1867.22 1040.51C1863.47 1050.47 1867.22 1064.16 1856 1070.38C1829.8 1028.07 1776.21 1026.83 1735.04 1043C1702.62 1054.2 1687.68 1087.8 1678.94 1117.67C1666.47 1220.96 1640.29 1325.5 1646.51 1428.8C1654.01 1441.24 1667.72 1458.67 1680.18 1461.15C1722.59 1481.08 1773.71 1461.15 1806.13 1438.75C1807.3 1464.29 1804.77 1489.86 1798.63 1514.67C1793.67 1532.11 1776.21 1532.11 1760 1530.86C1742.51 1524.63 1743.78 1505.96 1745.03 1489.77C1707.61 1489.77 1671.47 1488.53 1632.82 1492.28C1626.59 1524.62 1631.57 1569.43 1660.25 1588.11C1722.59 1620.46 1793.67 1615.49 1858.49 1589.35C1895.91 1571.92 1914.6 1529.63 1924.58 1492.29C1952.01 1342.93 1970.72 1188.61 1990.68 1038.04L1873.44 1036.78V1036.78ZM1821.08 1337.96C1818.58 1356.62 1803.6 1367.83 1787.41 1374.03V1371.55C1784.91 1375.27 1777.43 1371.55 1771.2 1365.33C1773.68 1288.2 1791.14 1214.75 1801.12 1140.08C1808.59 1118.93 1842.26 1120.16 1844.77 1142.57C1844.77 1206.03 1829.8 1273.24 1821.08 1337.96V1337.96ZM2388.41 1061.67L2373.47 1128.88H2388.41L2393.4 1102.74H2408.37C2415.84 1102.74 2418.36 1105.22 2417.08 1111.44L2415.84 1122.65C2414.59 1125.13 2414.59 1126.39 2414.59 1128.86H2430.81L2432.05 1127.62C2429.57 1126.37 2429.57 1125.13 2429.57 1121.39L2432.05 1110.2C2433.3 1102.73 2432.05 1100.24 2427.06 1097.76C2427.06 1097.76 2427.06 1096.5 2425.81 1096.5C2433.28 1094.03 2438.28 1089.05 2439.55 1080.33C2442.02 1069.14 2435.8 1061.67 2423.34 1061.67H2388.41V1061.67ZM2395.9 1091.54L2399.63 1072.87H2418.34C2424.57 1072.87 2427.06 1076.61 2425.81 1082.83C2424.57 1087.81 2420.82 1091.55 2414.59 1091.55H2395.9V1091.54Z" fill="#2360A5"/>
<path d="M2405.89 1153.76C2437.04 1153.76 2463.24 1128.88 2463.24 1096.52C2463.24 1064.16 2437.04 1038.04 2405.89 1038.04C2398.2 1038.02 2390.58 1039.52 2383.47 1042.45C2376.36 1045.38 2369.9 1049.69 2364.45 1055.12C2359.01 1060.55 2354.68 1067 2351.74 1074.11C2348.79 1081.21 2347.27 1088.82 2347.27 1096.52C2347.27 1128.88 2373.47 1153.76 2405.89 1153.76Z" stroke="#2360A5" stroke-width="6.80913" stroke-miterlimit="2.613"/>
</svg>
