<svg width="960" height="560" viewBox="0 0 960 560" fill="none" xmlns="http://www.w3.org/2000/svg">
<g clip-path="url(#clip0_1_2)">
<path d="M10.7457 529V405.364H59.5242C68.9015 405.364 76.8904 407.155 83.4908 410.737C90.0911 414.278 95.1219 419.208 98.5831 425.527C102.085 431.805 103.835 439.05 103.835 447.26C103.835 455.47 102.064 462.714 98.5227 468.993C94.9811 475.271 89.8497 480.161 83.1286 483.663C76.4477 487.164 68.3582 488.915 58.8601 488.915H27.7699V467.967H54.6342C59.665 467.967 63.8104 467.101 67.0703 465.371C70.3705 463.6 72.8255 461.165 74.4354 458.066C76.0855 454.927 76.9105 451.325 76.9105 447.26C76.9105 443.155 76.0855 439.573 74.4354 436.514C72.8255 433.415 70.3705 431.021 67.0703 429.33C63.7701 427.6 59.5845 426.734 54.5135 426.734H36.8857V529H10.7457ZM136.09 529H113.352L147.999 428.636H175.344L209.942 529H187.203L162.063 451.571H161.279L136.09 529ZM134.669 489.55H188.379V506.114H134.669V489.55ZM239.553 441V529H220.947V441H239.553ZM333.166 435.909V529H316.166L275.666 470.409H274.985V529H255.303V435.909H272.576L312.757 494.455H313.576V435.909H333.166ZM346.451 442.528V424.273H432.462V442.528H400.399V529H378.513V442.528H346.451ZM564.283 385.727V529H533.991V385.727H564.283ZM582.435 432.92V412.636H678.003V432.92H642.378V529H618.06V432.92H582.435Z" fill="url(#paint0_linear_1_2)"/>
<path d="M491 430.478H470C453 430.478 436 419.24 436 419.24C393 381.5 378.61 363.46 341.943 330.816C340.288 329.344 338.51 327.913 335.934 325.768C296.447 360.052 257.634 393.748 218.146 427.99C215.878 425.298 214.161 423.195 212.567 421.302C212.505 417.684 222.193 415.412 214.038 410.533C208.888 413.688 203.799 416.843 198.709 419.955C198.341 419.703 197.974 419.493 197.544 419.24C198.525 418.062 199.445 416.885 200.549 415.749C206.926 409.313 206.926 409.313 198.955 404.349C193.988 407.546 189.021 410.785 182.645 414.907C187.55 408.85 191.597 403.802 195.644 398.796C195.582 398.712 195.521 398.67 195.398 398.586C193.007 400.899 190.616 403.213 188.163 405.527C187.489 405.106 186.753 404.643 186.078 404.223C185.956 403.255 185.894 402.245 185.71 400.899C183.135 402.33 180.989 403.507 177.126 405.653C179.272 401.488 180.621 398.838 181.909 396.188C181.663 396.062 181.418 395.893 181.112 395.767C177.555 398.796 173.999 401.867 170.504 404.896C169.891 404.517 169.278 404.138 168.664 403.802C170.32 401.194 172.037 398.586 173.692 395.935C173.141 395.641 172.65 395.346 172.098 395.094C168.971 397.197 165.844 399.301 162.717 401.404C162.165 401.025 161.552 400.605 161 400.226C219.189 348.652 272.816 297.121 331.557 245C340.141 252.572 525.529 420.881 533.5 427.99" fill="url(#paint1_linear_1_2)"/>
</g>
<defs>
<linearGradient id="paint0_linear_1_2" x1="52.4085" y1="328.642" x2="699.389" y2="620.322" gradientUnits="userSpaceOnUse">
<stop stop-color="#00D39F"/>
<stop offset="0.284275" stop-color="#008DD1"/>
<stop offset="0.719622" stop-color="#6D4BAC"/>
<stop offset="0.912912" stop-color="#C90668"/>
<stop offset="1" stop-color="#F7F5F6"/>
</linearGradient>
<linearGradient id="paint1_linear_1_2" x1="131" y1="358.5" x2="586.5" y2="508.5" gradientUnits="userSpaceOnUse">
<stop offset="0.156807" stop-color="#00D39F"/>
<stop offset="0.261165" stop-color="#00BDB1"/>
<stop offset="0.418034" stop-color="#0098CA"/>
<stop offset="0.477585" stop-color="#008BD3"/>
<stop offset="0.543474" stop-color="#2970BD"/>
<stop offset="0.662167" stop-color="#65499E"/>
<stop offset="0.747481" stop-color="#952984"/>
<stop offset="0.826686" stop-color="#B71372"/>
<stop offset="0.874705" stop-color="#CC0567"/>
<stop offset="0.954432" stop-color="#D4B007"/>
<stop offset="0.977669" stop-color="#D4BB02"/>
<stop offset="1" stop-color="#008BD3"/>
<stop offset="1" stop-color="#D4BE00"/>
</linearGradient>
<clipPath id="clip0_1_2">
<rect width="960" height="560" fill="white"/>
</clipPath>
</defs>
</svg>
