<svg width="665" height="328" viewBox="0 0 665 328" fill="none" xmlns="http://www.w3.org/2000/svg">
<path d="M475 185.478H454C437 185.478 420 174.24 420 174.24C377 136.5 362.61 118.46 325.943 85.8161C324.288 84.3438 322.51 82.9135 319.934 80.7681C280.447 115.052 241.634 148.748 202.146 182.99C199.878 180.298 198.161 178.195 196.567 176.302C196.505 172.684 206.193 170.412 198.038 165.533C192.888 168.688 187.799 171.843 182.709 174.955C182.341 174.703 181.974 174.493 181.544 174.24C182.525 173.062 183.445 171.885 184.549 170.749C190.926 164.313 190.926 164.313 182.955 159.349C177.988 162.546 173.021 165.785 166.645 169.907C171.55 163.85 175.597 158.802 179.644 153.796C179.582 153.712 179.521 153.67 179.398 153.586C177.007 155.899 174.616 158.213 172.163 160.527C171.489 160.106 170.753 159.643 170.078 159.223C169.956 158.255 169.894 157.245 169.71 155.899C167.135 157.33 164.989 158.507 161.126 160.653C163.272 156.488 164.621 153.838 165.909 151.188C165.663 151.062 165.418 150.893 165.112 150.767C161.555 153.796 157.999 156.867 154.504 159.896C153.891 159.517 153.278 159.138 152.664 158.802C154.32 156.194 156.037 153.586 157.692 150.935C157.141 150.641 156.65 150.346 156.098 150.094C152.971 152.197 149.844 154.301 146.717 156.404C146.165 156.025 145.552 155.605 145 155.226C203.189 103.652 256.816 52.1207 315.557 0C324.141 7.57201 509.529 175.881 517.5 182.99" fill="#FDF4FC"/>
<path d="M10.4929 280.487V159.76H58.1236C67.2803 159.76 75.0812 161.509 81.5263 165.007C87.9714 168.465 92.8838 173.279 96.2635 179.449C99.6825 185.58 101.392 192.654 101.392 200.671C101.392 208.688 99.6629 215.762 96.2046 221.892C92.7462 228.023 87.7356 232.798 81.1726 236.217C74.6489 239.636 66.7498 241.345 57.4751 241.345H27.1165V220.89H53.3487C58.2611 220.89 62.309 220.045 65.4922 218.355C68.7147 216.626 71.112 214.248 72.684 211.222C74.2952 208.157 75.1009 204.64 75.1009 200.671C75.1009 196.662 74.2952 193.164 72.684 190.178C71.112 187.152 68.7147 184.813 65.4922 183.163C62.2697 181.473 58.1825 180.628 53.2308 180.628H36.0178V280.487H10.4929ZM132.746 280.487H110.667L144.309 183.033H170.862L204.457 280.487H182.378L157.966 205.303H157.205L132.746 280.487ZM131.366 242.181H183.52V258.265H131.366V242.181ZM233.103 195.396V280.487H215.112V195.396H233.103ZM323.777 190.306V280.487H307.309L268.074 223.727H267.414V280.487H248.347V190.306H265.08L304.006 247.021H304.799V190.306H323.777ZM336.664 196.418V178.669H420.286V196.418H389.114V280.487H367.836V196.418H336.664ZM548.321 140.124V280.487H518.645V140.124H548.321ZM566.078 186.81V167.033H659.257V186.81H624.522V280.487H600.812V186.81H566.078Z" fill="#FDF4FC"/>
</svg>
