<svg width="665" height="329" viewBox="0 0 665 329" fill="none" xmlns="http://www.w3.org/2000/svg">
<path d="M513.5 182.99L450 185.478C433 185.478 416 174.24 416 174.24C373 136.5 358.61 118.46 321.943 85.8161C320.288 84.3438 318.51 82.9135 315.934 80.7681C276.447 115.052 237.634 148.748 198.146 182.99C195.878 180.298 194.161 178.195 192.567 176.302C192.505 172.684 202.193 170.412 194.038 165.533C188.888 168.688 183.799 171.843 178.709 174.955C178.341 174.703 177.974 174.493 177.544 174.24C178.525 173.062 179.445 171.885 180.549 170.749C186.926 164.313 186.926 164.313 178.955 159.349C173.988 162.546 169.021 165.785 162.645 169.907C167.55 163.85 171.597 158.802 175.644 153.796C175.582 153.712 175.521 153.67 175.398 153.586C173.007 155.899 170.616 158.213 168.163 160.527C167.489 160.106 166.753 159.643 166.078 159.223C165.956 158.255 165.894 157.245 165.71 155.899C163.135 157.33 160.989 158.507 157.126 160.653C159.272 156.488 160.621 153.838 161.909 151.188C161.663 151.062 161.418 150.893 161.112 150.767C157.555 153.796 153.999 156.867 150.504 159.896C149.891 159.517 149.278 159.138 148.664 158.802C150.32 156.194 152.037 153.586 153.692 150.935C153.141 150.641 152.65 150.346 152.098 150.094C148.971 152.197 145.844 154.301 142.717 156.404C142.165 156.025 141.552 155.605 141 155.226C199.189 103.652 252.816 52.1207 311.557 0C320.141 7.57201 505.529 175.881 513.5 182.99Z" fill="#F8D210"/>
<path d="M10.4929 282V161.273H58.1236C67.2803 161.273 75.0812 163.022 81.5263 166.519C87.9714 169.978 92.8838 174.792 96.2635 180.962C99.6825 187.092 101.392 194.166 101.392 202.183C101.392 210.2 99.6629 217.274 96.2046 223.405C92.7462 229.536 87.7356 234.31 81.1726 237.729C74.6489 241.148 66.7498 242.858 57.4751 242.858H27.1165V222.403H53.3487C58.2611 222.403 62.309 221.558 65.4922 219.868C68.7147 218.139 71.112 215.761 72.684 212.735C74.2952 209.67 75.1009 206.152 75.1009 202.183C75.1009 198.175 74.2952 194.677 72.684 191.69C71.112 188.664 68.7147 186.326 65.4922 184.675C62.2697 182.986 58.1825 182.141 53.2308 182.141H36.0178V282H10.4929ZM132.746 282H110.667L144.309 184.545H170.862L204.457 282H182.378L157.966 206.815H157.205L132.746 282ZM131.366 243.694H183.52V259.778H131.366V243.694ZM233.103 196.909V282H215.112V196.909H233.103ZM323.777 191.818V282H307.309L268.074 225.24H267.414V282H248.347V191.818H265.08L304.006 248.534H304.799V191.818H323.777ZM336.664 197.93V180.182H420.286V197.93H389.114V282H367.836V197.93H336.664ZM548.321 141.636V282H518.645V141.636H548.321ZM566.078 188.322V168.545H659.257V188.322H624.522V282H600.812V188.322H566.078Z" fill="#2FF3E0"/>
</svg>
