<svg id="Layer_1" data-name="Layer 1" xmlns="http://www.w3.org/2000/svg" viewBox="0 0 924.02 465.23"><path d="M104.54,482.66V460.48c-17.59,6.77-34.06,6.92-47.75,2.26a56.58,56.58,0,0,1-26.31-18.42,58.07,58.07,0,0,1-12.11-29.71c-1.95-17.36,3.23-37,18.05-55.41h0A16.68,16.68,0,0,1,39,356.64L468,21.66a15.7,15.7,0,0,1,20.3-.82l430,334.3h0a13.2,13.2,0,0,1,1.88,1.73c19.92,21.43,24.89,45.19,20.07,65.26a60.78,60.78,0,0,1-13.68,26.17,59.29,59.29,0,0,1-24.36,16.47c-15,5.41-32.94,5.26-51.06-3.31v21.2H809.08V443c0-7.59-295-240.76-327.53-266.1C447,203.1,146.65,434.39,146.65,444.17v38.57H104.54ZM723.07,44.22l129.1,5.27V223.85l-129.1-85.19V44.22Z" transform="translate(-17.98 -17.51)" fill="#74ccd5" fill-rule="evenodd"/></svg>