<svg id="Layer_1" data-name="Layer 1" xmlns="http://www.w3.org/2000/svg" viewBox="0 0 536.32 476.15"><g id="roof-damage"><path d="M440.5,261.33c-2.76-7.73-5.27-15.56-8.36-23.16-4.12-10.12-2.11-18.82,4.38-27.32,11.43-14.95,22.22-30.39,33.71-45.3,5.83-7.56,6.42-14.23,1.52-22.77-9.36-16.29-17.33-33.36-26.45-49.8-5.61-10.1-5.94-19.46-.24-29.6,7.35-13,13.95-26.49,21.05-39.67,7.23-13.39,15.93-15.33,27.95-6q50.52,39,100.85,78.29c1.08.84,2.26,1.56,5.11,3.5.25-5.13.45-9,.62-12.87.57-13.53,6-19,19.3-19q26.19-.15,52.38,0c13.2.09,19.06,5.89,19.15,19.22.16,24.43.22,48.86,0,73.29-.09,8,2.39,13.81,9.07,18.64,13.28,9.61,26.11,19.83,39,30,5.27,4.15,10.79,8.71,7.83,16.56-2.86,7.56-9.58,8.14-16.56,8-8-.18-16.14-.67-24,.32-2.84.35-6,4.21-7.51,7.22-1.26,2.53-.33,6.15-.33,9.29q0,106.27,0,212.53c0,21.38-4.17,25.43-25.93,25.44q-63.88,0-127.78,0c-18.57,0-23.33-4.89-23.33-23.65,0-24.08.31-48.16-.06-72.24-.54-34.17-26.16-53.61-57.42-44-16.19,5-26,20.28-26.18,42.12-.25,25.47,0,50.95,0,76.42,0,15.4-5.38,21.26-20.39,21.31q-68.08.23-136.17,0c-15.3-.05-20.43-5.82-20.44-22.44q-.11-109.41,0-218.81c0-13.51,0-13.51-13.84-13.52-5.94,0-11.88-.12-17.81,0-6.91.18-13.72-.18-16.7-7.75-3.31-8.41,2.86-13,8.33-17.29,18.9-14.9,38-29.62,57-44.39Q319.78,131.36,361.52,99c12.41-9.61,19.5-9.08,29.6,2.53,11.68,13.42,23,27.16,34.68,40.58,7.08,8.15,8,16.66,2.65,26-9.68,16.93-19.12,34-29.15,50.74-3.81,6.34-3.28,10.52,2.65,15,12.43,9.37,24.51,19.19,36.73,28.83ZM482.78,112.7l-2,1.72c4.66,9.12,9,18.4,14.05,27.31,5.64,10,4.92,18.89-2,28.07-12.62,16.69-24.48,33.94-37.19,50.54-4,5.17-4.17,9.33-1.91,15.11,6.31,16.2,11.95,32.66,17.93,49,2.38,6.5,4.27,13.15-2.48,18-6.56,4.7-12.51,1.46-18-2.88-23-18.16-46.07-36.21-69-54.47-11.27-9-12.55-16.53-5.52-29.08q7.74-13.83,15.56-27.61a20.67,20.67,0,0,0-10.12,3.7c-17,10.88-33.95,22-51.1,32.65-5.75,3.58-12.55,11.43-18.65,2s4.05-12.47,9.62-16.11c26-17,52.2-33.51,78.26-50.34,3.44-2.23,9.44-4.1,4.42-10.09-9.6-11.44-19.37-22.74-29.74-34.89L252.31,210.74c29.94,4.65,30.15,4.91,30.15,34q0,105.21-.06,210.41c0,6.57.32,11.6,9.07,11.55,38.75-.22,77.5-.15,116.25-.05,7,0,9.75-2.46,9.62-9.9q-.66-35.06-.09-70.14c.42-29,17.65-52.64,42.53-59.33,44-11.84,82.39,17,83,62.55.28,21.28.59,42.59-.18,63.85-.38,10.53,3.65,13.2,13.36,13.11,36.31-.37,72.62-.48,108.92.06,10.19.15,12.94-3.08,12.88-13.1-.4-71.88-.22-143.76-.21-215.65,0-21,3.18-24.35,24.43-26.13.79-.07,1.5-1.05,3.8-2.76L483.57,36.29C476,50.52,469.44,63,462.66,75.77c3.4,2.76,6,5,8.76,7.08q59.5,44.45,119.05,88.85c19,14.18,38.25,28.07,56.77,42.86,2.81,2.25,2.28,8.68,3.3,13.17-4.34.08-8.73.53-13,.07-1.78-.2-3.34-2.36-5-3.61Q563.76,172.86,495,121.56C491,118.55,486.86,115.65,482.78,112.7ZM623.34,88.54c-3.66,17.68-2.94,32.21,14.31,41.09,5.17,2.66,9.42,7.07,14.13,10.64,5.32,4,10.67,8,18.46,13.86,0-22.48.16-41.76-.3-61,0-1.58-4.3-4.28-6.67-4.36C650.12,88.32,637,88.54,623.34,88.54Z" transform="translate(-211.84 -11.93)" fill="#74cdd7"/></g></svg>