<svg id="Layer_1" data-name="Layer 1" xmlns="http://www.w3.org/2000/svg" viewBox="0 0 329.49 460.39"><g id="roof-leak"><path d="M384.8,299.77c2.79,15.48,5.45,31,8.4,46.44A187,187,0,0,1,386,443.75c-3.67,10.67-10.83,14.8-19.82,12.11s-12.93-11.19-9.33-22a163.86,163.86,0,0,0,4.64-88.93c-1.33-6.05-4.29-10.15-9.19-14.66C346.5,324.92,342,316,340.9,308.06c-2.72-19.66-1.5-39.59,5.61-58.41,2.77-7.32,6.76-14.94,12.27-20.26,9.4-9.08,18-8.92,29.11-2.15,22.17,13.49,44.64,18.31,68.2,3.19,5.6-3.58,11.32-3.44,14.84,3.18,3.24,6.11.21,10.42-4.94,13.84-20.31,13.47-42,14.79-64.9,8.06-3.84-1.13-8.31-.11-12.49-.09-1-3.71-.9-8.24-3.09-10.95-2.82-3.48-7.29-7.43-11.31-7.74-6.21-.47-9.65,4.59-9.11,11.05.34,4.13.87,8.46,2.42,12.24C373,273.38,379,286.54,384.8,299.77Z" transform="translate(-315.3 -19.17)" fill="#74cdd7"/><path d="M419,451.33c16-9.34,34.57-7.89,52.76-11,.5-8.84,1-17.67,1.61-28.35l-4.24-5.12-9.46,7.6,9.67.81.07,1.56H459c1.66-3,2.75-6.66,5.13-8.92,4.1-3.86,11-6.26,3-12.9-.92-.76-.13-3.61-.13-6h68c-1.79,16.62-3.53,32.81-5.24,48.69,10.18,6.18,27.26-3.7,28.94,15.57,12.07.85,24.06,1.06,35.83,2.79,5.48.81,10.52,4.58,15.77,7-4.91,2.23-9.76,6.2-14.74,6.38-28.44,1-56.91,1.18-85.37,1.4-2.77,0-6.35-.71-8.19-2.5-9.7-9.4-21.66-8.56-33.67-8.75-13.88-.21-27.76-1-41.61-1.91-2.8-.19-5.48-2.17-8.22-3.32Zm114-7.07c-3.2,2.37-6.3,6.63-9.62,6.8-14.51.76-29.08.37-43.63.27-1.81,0-5-.43-5.22-1.28-2.57-9.71-10.21-6.24-15.73-5.56-12.25,1.51-24.35,4.21-36.51,6.42l.33,3.39c2.43.52,4.85,1.39,7.29,1.49,17.09.71,34.21.89,51.26,2.06,5.88.4,11.63,3,17.36,4.86,6,1.91,11.87,5.8,17.81,5.85,26.48.21,53-.51,79.43-1.26,4.08-.11,8.11-2.1,12.16-3.22-.08-1.27-.15-2.53-.23-3.79l-52-5.15C554.79,443.79,550.71,441.77,533,444.26Z" transform="translate(-315.3 -19.17)" fill="#74cdd7"/><path d="M315.3,38.45V20.19H502.36c1.42,6,2.78,11.8,4.31,18.26Z" transform="translate(-315.3 -19.17)" fill="#74cdd7"/><path d="M510.81,38.51c-4.58-15.52-2-19.33,13.1-19.33H644.79V38.51Z" transform="translate(-315.3 -19.17)" fill="#74cdd7"/><path d="M358.87,218.82a27.55,27.55,0,1,1,27.95-27.23C386.75,207,374.51,218.89,358.87,218.82Z" transform="translate(-315.3 -19.17)" fill="#74cdd7"/><path d="M384.8,299.77C379,286.54,373,273.38,367.51,260c-1.55-3.78-2.08-8.11-2.42-12.24-.54-6.46,2.9-11.52,9.11-11.05,4,.31,8.49,4.26,11.31,7.74,2.19,2.71,2.14,7.24,3.09,10.95,2.67,18.22,13.18,32.61,23.34,47.05,5,7.1,11,13.53,16.73,20.07,4.83,5.49,8.83,11.44,2.26,17.61-6.4,6-12.05,1.63-16.44-3.68C404.46,324.35,394.68,312,384.8,299.77Z" transform="translate(-315.3 -19.17)" fill="#74cdd7"/><path d="M446.2,473.88c7.11-6.62,33.31-9,39.44-3.58.94.83.09,5.9-1.36,6.86C477.51,481.67,453.44,479.43,446.2,473.88Zm38.69,1.65-.36-3.79H450.08v3.79Z" transform="translate(-315.3 -19.17)" fill="#74cdd7"/><path d="M601.87,445c-7.88,7.09-27.66,7.35-37.38.49C571.48,437.76,592.91,437.48,601.87,445Zm-33-1.47c-.11,1-.23,2-.35,2.95h29v-2.95Z" transform="translate(-315.3 -19.17)" fill="#74cdd7"/><path d="M507.19,73.89c-3.93-5.68-2-11.47,2.94-17.29V73.84Z" transform="translate(-315.3 -19.17)" fill="#74cdd7"/></g></svg>