<svg width="752" height="479" viewBox="0 0 752 479" fill="none" xmlns="http://www.w3.org/2000/svg">
<g clip-path="url(#clip0_0_3)">
<path d="M233.07 244C229.84 212.79 241.86 185.47 251.51 157.56C252.51 154.56 253.35 151.18 255.21 148.92C279.35 119.57 294.73 82.73 323.62 57.1C341.75 41.02 356.62 20.5 374.67 -0.0400085L487.24 124.07V48.33H636.88V69.33C636.88 136.4 636.45 203.48 637.37 270.53C637.5 280.09 642.05 291.76 648.15 298.68C681.63 336.68 716.24 373.57 751.34 411.79L706.41 455L374.95 91.94C357.95 110.8 342.51 128.14 326.88 145.3C300.68 174.09 274.47 202.88 247.99 231.37C243.54 236.17 237.71 239.44 232.51 243.37L233.07 244Z" fill="#74CCD5"/>
<path d="M232.54 243.42L234.41 247.74L234.91 247.31C175.43 312.11 115.97 376.927 56.53 441.76C51.53 447.19 47.42 453.51 42.36 460.11L0 411.28C18.77 390.97 40.21 370.89 58.18 347.61C89.3 307.29 129.3 282.61 171.31 258.94C191.88 247.35 211.56 244.21 233.09 244.06L232.54 243.42Z" fill="#74CCD5"/>
<path d="M234.41 247.74C248.7 277.74 264.9 306.84 276.59 337.99C284.36 358.69 273.84 379.42 256.51 390.51C240.99 400.44 219 397.7 205.51 384.15C190.92 369.48 187.72 349.28 197.44 327.73C209.58 300.73 222.31 274.15 234.83 247.35L234.41 247.74ZM268.51 342.74L234.82 377.12C257.09 379 266.27 370.1 268.51 342.77V342.74Z" fill="#74CCD5"/>
<path d="M180.19 330.34C181.73 339.25 181.71 345.83 184.03 351.22C190.03 365.22 194.8 381.22 204.28 391.98C220.61 410.48 225.83 439.16 212.38 459.43C199.66 478.59 174.26 484.66 155.7 472.96C135.14 460.01 128 434.27 139.7 409.54C151.7 384.07 165.22 359.44 180.19 330.34ZM172.95 468.89C203.65 463.65 215.81 448.06 206.67 434.89C196.43 445.17 186.34 455.34 172.95 468.89Z" fill="#74CCD5"/>
<path d="M298.28 285C310.74 313.65 325.28 341.49 335.04 371.19C343.45 396.68 329.04 422.88 307.57 429.97C284.81 437.47 264.14 426.65 254.37 401.35C281.88 382.46 291.28 356.67 282.29 320.95C279.83 311.14 289.08 297.81 292.96 286.1L298.28 285ZM295.85 413.4C310.57 415.86 325.85 405.4 327.99 389.67C328.26 386.728 327.587 383.775 326.07 381.24C325.5 380.32 321.07 380.62 319.98 381.94C311.83 392.08 304.09 402.57 295.85 413.43V413.4Z" fill="#74CCD5"/>
</g>
<defs>
<clipPath id="clip0_0_3">
<rect width="751.34" height="478.92" fill="white"/>
</clipPath>
</defs>
</svg>
